<?xml version="1.0" encoding="UTF-8"?><svg id="Layer_1" xmlns="http://www.w3.org/2000/svg" width="513" height="513" viewBox="0 0 513 513"><rect x=".5" y=".5" width="512" height="512" fill="#0b1b3a" stroke="#1d1d1b" stroke-miterlimit="10"/><path d="M133.93,170.88c2.01,0,3.35,1.56,3.35,3.35v147.58c0,1.56-1.34,3.12-3.35,3.12h-39.52c-1.56,0-3.13-1.56-3.13-3.12v-147.58c0-1.79,1.56-3.35,3.13-3.35h39.52Z" fill="#fff"/><path d="M284.86,230.49c1.79,0,3.35,1.56,3.35,3.13v71c0,2.01-1.12,4.02-2.68,5.36-13.4,11.39-33.94,18.08-55.37,18.08-48.23,0-80.38-32.15-80.38-80.38s32.15-80.38,80.38-80.38c16.52,0,33.94,4.91,46.89,12.95,1.79.89,2.46,2.68,2.01,4.02l-11.16,32.82c-.67,1.56-2.23,2.23-4.24,1.79-9.15-4.91-20.99-7.81-32.15-7.81-20.54,0-34.38,14.74-34.38,36.62s13.84,37.06,34.38,37.06c8.26,0,13.84-1.56,16.3-4.24v-12.95h-20.54c-2.01,0-3.35-.89-3.57-2.46l-2.9-30.81c-.22-2.23,1.12-3.8,3.57-3.8h60.5ZM249.14,277.15v.89-.89Z" fill="#fff"/><path d="M425.07,311.31c.67,1.56-.22,3.13-2.01,4.02-12.95,8.04-30.36,12.95-46.89,12.95-45.99,0-76.8-32.15-76.8-80.38s30.81-80.38,76.8-80.38c16.52,0,33.94,4.91,46.89,12.95,1.79.89,2.68,2.46,2.01,4.02l-14.74,31.03c-.89,2.01-2.46,2.68-4.24,1.79-8.26-4.69-16.3-6.25-25.9-6.25-20.09,0-33.49,14.74-33.49,36.84s13.4,36.84,33.49,36.84c9.6,0,17.64-1.56,25.9-6.25,1.79-.89,3.35-.22,4.24,1.79l14.74,31.03Z" fill="#fff"/><circle cx="374.12" cy="96.67" r="36.18" fill="#004cff"/></svg>